
<svg xmlns="http://www.w3.org/2000/svg" xmlns:xlink="http://www.w3.org/1999/xlink" viewBox="0 0 705.52 236.75"><defs><style>.cls-1{fill:url(#linear-gradient);}.cls-2{fill:#fff;}</style><linearGradient id="linear-gradient" x1="221.89" y1="7.66" x2="48.04" y2="193.6" gradientUnits="userSpaceOnUse"><stop offset="0.36" stop-color="#a75cfd"/><stop offset="1" stop-color="#635bfd"/></linearGradient></defs><g id="Layer_2" data-name="Layer 2"><g id="Layer_1-2" data-name="Layer 1"><path class="cls-1" d="M189.09,134a8.45,8.45,0,0,1,5.07,10.79,8.64,8.64,0,0,1-11.24,5.13,8.45,8.45,0,0,1-5-10.85A8.35,8.35,0,0,1,189.09,134Zm-26,1.35a8.49,8.49,0,0,0-5.1-10.71,8.82,8.82,0,0,0-11.27,5.06,9.05,9.05,0,0,0,5.39,11.17A8.64,8.64,0,0,0,163.11,135.34ZM81.05,115.68c1.51.5,3,1.07,4.54,1.47,4.88,1.3,9.14-.57,10.55-4.54,1.47-4.16-.92-8.48-5.89-10.33-3.07-1.15-6.21-2.1-9.54-3.21,1.32-3.94,2.51-7.08,3.4-10.3,1.32-4.72-.56-8.24-5-9.53S71.5,79.62,69.9,84c-1.19,3.27-2.22,6.61-3.46,10.34-3.14-1-5.61-1.89-8.1-2.7-6.3-2-10.91-.47-12.41,4.22s1.17,8.46,7.63,10.68c2.44.84,4.91,1.64,7.91,2.64C60.2,113,59,116.1,58.13,119.29c-1.36,4.77.42,8.37,4.63,9.76s7.9-.52,9.62-5c1.22-3.23,2.21-6.55,3.39-10.09Zm87.54,28.91a8.45,8.45,0,0,0-10.83,5.67,8.52,8.52,0,1,0,16.17,5.34A8.49,8.49,0,0,0,168.59,144.59ZM236.75,0V115.66A121.09,121.09,0,0,1,115.66,236.75,115.66,115.66,0,0,1,0,121.09H0A121.09,121.09,0,0,1,121.09,0Zm-21,21H117.2A96.23,96.23,0,0,0,21,117.2v2.35a96.23,96.23,0,0,0,96.23,96.23h2.35a96.24,96.24,0,0,0,96.23-96.23V21ZM75.16,164.8l1.67,1.67a9.24,9.24,0,0,0,13.07,0L166.4,90a9.23,9.23,0,0,0,0-13.06l-1.67-1.68a9.26,9.26,0,0,0-13.07,0l-76.5,76.5A9.24,9.24,0,0,0,75.16,164.8Zm91.71-45.53a8.28,8.28,0,0,0,5.43,10.48,8.41,8.41,0,0,0,11-5.28,8.54,8.54,0,0,0-5.63-10.9A8.45,8.45,0,0,0,166.87,119.27Z"/><path class="cls-2" d="M358.91,10.52l1.31-9.2H375v67.2q0,17.36-10.46,27T335.17,105q-20,0-34.46-10.45l8.49-13.35a54.62,54.62,0,0,0,12.69,6.38,41.05,41.05,0,0,0,12.89,2q11.43,0,17.29-5.59t5.85-16.5v-3a27.5,27.5,0,0,1-10.35,8.38,31.84,31.84,0,0,1-13.71,2.93A37.45,37.45,0,0,1,301,56.68,38.29,38.29,0,0,1,296,37.28a37.85,37.85,0,0,1,2.86-14.66,36.07,36.07,0,0,1,8-12A36.89,36.89,0,0,1,319,2.83,39.42,39.42,0,0,1,333.86,0,33.81,33.81,0,0,1,358.91,10.52ZM335.83,60a21.73,21.73,0,0,0,16-6.51,21.44,21.44,0,0,0,6.51-15.85A21.39,21.39,0,0,0,351.87,22a23.63,23.63,0,0,0-32.15,0,21.29,21.29,0,0,0-6.51,15.72,21.35,21.35,0,0,0,6.51,15.91A21.83,21.83,0,0,0,335.83,60Z"/><path class="cls-2" d="M454.72,10.92l1.44-9.6H471V78.65H456.16L454.72,69a34.57,34.57,0,0,1-11.18,8.09A32.54,32.54,0,0,1,429.93,80a38.91,38.91,0,0,1-27.62-11.57A39.52,39.52,0,0,1,394,55.57a41.83,41.83,0,0,1,0-31.21A38.19,38.19,0,0,1,414.9,3.06a38,38,0,0,1,15-3.06A32.94,32.94,0,0,1,443.6,2.89,33.38,33.38,0,0,1,454.72,10.92ZM431.24,63.13A22.57,22.57,0,0,0,454.19,40a22.57,22.57,0,0,0-6.57-16.64,22.29,22.29,0,0,0-16.38-6.64,21.93,21.93,0,0,0-16.31,6.64A22.57,22.57,0,0,0,408.36,40a22.58,22.58,0,0,0,6.51,16.57A22.07,22.07,0,0,0,431.24,63.13Z"/><path class="cls-2" d="M508.31,40V78.65h-17.1V1.32H506l1.31,9.07A29.4,29.4,0,0,1,530.27,0q18.68,0,26.5,13.35a30.65,30.65,0,0,1,11.38-9.9,32.82,32.82,0,0,1,15-3.45q14.34,0,22.62,8.75t8.22,24v45.9H596.89V38q0-10.92-4.15-16.18t-12.69-5.26q-9.27,0-14,5.95T561.25,40V78.65H544.08V38q0-10.86-4.17-16.15t-12.66-5.29q-9.27,0-14.11,5.95T508.31,40Z"/><path class="cls-2" d="M705.52,36.5a45.21,45.21,0,0,1-.53,8.61H646a22.6,22.6,0,0,0,8.35,14.07q6.71,5.32,16.57,5.33,12.23,0,19.79-7.56l10.39,11.44Q689.14,80,670.8,80A43.22,43.22,0,0,1,649.36,75a37.64,37.64,0,0,1-20.19-34.52,42.34,42.34,0,0,1,3-15.95,38.83,38.83,0,0,1,8.41-13A39.42,39.42,0,0,1,653.4,3.09,40.16,40.16,0,0,1,669,0q16,0,26.24,10.26T705.52,36.5Zm-58.72-5h42A14.89,14.89,0,0,0,683,20.06a21.56,21.56,0,0,0-14.07-4.61A23,23,0,0,0,655,19.73,22.12,22.12,0,0,0,646.8,31.5Z"/><path class="cls-2" d="M341.22,132.07a38.41,38.41,0,0,1,15.12,3.06,37.88,37.88,0,0,1,12.5,8.45,39.15,39.15,0,0,1,8.28,12.85,41.18,41.18,0,0,1,3,15.62,41.69,41.69,0,0,1-3,15.62,37.7,37.7,0,0,1-8.32,12.79,39.06,39.06,0,0,1-12.56,8.48A37.94,37.94,0,0,1,341.22,212a32.63,32.63,0,0,1-13.15-2.69,32.28,32.28,0,0,1-10.79-7.63v34.06H300.19V133.39H315l1.45,9.6a33.39,33.39,0,0,1,24.79-10.92Zm-17.69,56.55a23.67,23.67,0,0,0,32.75,0,24.42,24.42,0,0,0,0-33.2,22.26,22.26,0,0,0-16.37-6.65,21.88,21.88,0,0,0-16.31,6.65,24.32,24.32,0,0,0-.07,33.2Z"/><path class="cls-2" d="M432.43,212A40.9,40.9,0,0,1,412,206.77a38.37,38.37,0,0,1-14.67-14.46A39.74,39.74,0,0,1,392,172.05a39,39,0,0,1,5.39-20.25A38.56,38.56,0,0,1,412,137.33a42.16,42.16,0,0,1,36.16-2.2,37.94,37.94,0,0,1,21.44,21.3,40.85,40.85,0,0,1,0,31.17,39.1,39.1,0,0,1-8.48,12.86,39.86,39.86,0,0,1-13,8.48A40.82,40.82,0,0,1,432.43,212Zm0-16.83a22.25,22.25,0,0,0,16.37-6.64,24.25,24.25,0,0,0-.07-33.14,22.15,22.15,0,0,0-16.3-6.65,23.22,23.22,0,1,0,0,46.43Z"/><path class="cls-2" d="M528.89,132.07q15.39,0,24.14,8.62t8.61,24.13v45.9h-17.1V170.08q0-11.06-4.47-16.24t-13.87-5.2q-9.81,0-15.13,6.05t-5.32,17.36v38.67h-17.1V133.39h14.79l1.32,8.94A31.78,31.78,0,0,1,528.89,132.07Z"/><path class="cls-2" d="M607.34,212a56.4,56.4,0,0,1-16.57-2.43,45.78,45.78,0,0,1-13.87-6.71l7.69-13.61a42.93,42.93,0,0,0,11.18,5.36,38.36,38.36,0,0,0,11.57,1.94q7.42,0,11-2a6.95,6.95,0,0,0,.23-12.07q-3.39-2.21-11.28-3.71-14.21-2.64-20.78-8.42T580,154.69a19.68,19.68,0,0,1,8.22-16.44q8.14-6.18,21.7-6.18,15.18,0,26.82,6.71l-8,13.74a40.28,40.28,0,0,0-9.27-3.88,38.79,38.79,0,0,0-9.6-1.12q-6,0-9.41,1.91c-2.28,1.27-3.42,3-3.42,5.26a6.24,6.24,0,0,0,3.16,5.59q3.09,1.91,12,3.82,13.8,3,20.35,8.91t6.54,15.35q0,11-8.55,17.29T607.34,212Z"/></g></g></svg>